<svg id="Layer_1" data-name="Layer 1" xmlns="http://www.w3.org/2000/svg" viewBox="0 0 524 524"><title>background</title><circle cx="262" cy="262" r="235.5" fill="none" stroke="#930d0d" stroke-miterlimit="10" stroke-width="53"/><path d="M576.49,248h25l9.65,37.46L620.73,248h25v61.56H630.16V262.63l-12,46.95H604l-12-46.95v46.95H576.49Z" transform="translate(-421 -122)"/><path d="M657.37,248h17.09v11.63H657.37Zm0,17h17.09v44.6H657.37Z" transform="translate(-421 -122)"/><path d="M685.38,265h15.92v7.26a23.7,23.7,0,0,1,7.22-6.36,19,19,0,0,1,8.9-1.91q7.1,0,11.11,4.22t4,13v28.34H715.36V285.05q0-4.2-1.55-5.94a5.55,5.55,0,0,0-4.37-1.74,6.21,6.21,0,0,0-5,2.35q-1.93,2.35-1.93,8.44v21.42H685.38Z" transform="translate(-421 -122)"/><path d="M789.68,248v61.56h-16V303a21.52,21.52,0,0,1-6.13,5.67,17.5,17.5,0,0,1-8.23,1.93q-9.11,0-13.92-6.93t-4.81-16.84q0-11.09,5.31-17a17.4,17.4,0,0,1,13.5-5.88,18.82,18.82,0,0,1,7.24,1.34,16.5,16.5,0,0,1,5.77,4V248Zm-17.13,39.14q0-5.25-2.23-7.83a7.11,7.11,0,0,0-5.63-2.58,6.2,6.2,0,0,0-5,2.48q-2,2.48-2,8.31,0,5.46,2.08,8a6.39,6.39,0,0,0,5.14,2.54,6.88,6.88,0,0,0,5.46-2.56Q772.55,292.95,772.55,287.15Z" transform="translate(-421 -122)"/><path d="M632,351.21v17h9.41v12.51H632v15.8a8.48,8.48,0,0,0,.55,3.77,3.13,3.13,0,0,0,2.94,1.43,18.76,18.76,0,0,0,5.29-1.09L642,412.4a55.65,55.65,0,0,1-11.84,1.39q-6.38,0-9.41-1.64a10,10,0,0,1-4.47-5q-1.45-3.33-1.45-10.8V380.69h-6.3V368.18h6.3V360Z" transform="translate(-421 -122)"/><path d="M649.56,351.21h17.09v22.68a23.07,23.07,0,0,1,6.93-5.17,19.68,19.68,0,0,1,8.15-1.55q7,0,11,4.24t4,13v28.35H679.54V388.25q0-4.2-1.55-5.94a5.55,5.55,0,0,0-4.37-1.74,6.21,6.21,0,0,0-5,2.35q-1.93,2.35-1.93,8.44v21.42H649.56Z" transform="translate(-421 -122)"/><path d="M756.43,394.72H722.16a11.06,11.06,0,0,0,2.23,6.13,8.1,8.1,0,0,0,6.47,2.9,9.71,9.71,0,0,0,4.79-1.26,11.25,11.25,0,0,0,3-2.81l16.84,1.55a24.11,24.11,0,0,1-9.32,9.64q-5.46,2.92-15.66,2.92-8.86,0-13.94-2.5a20.47,20.47,0,0,1-8.42-7.94,24,24,0,0,1-3.34-12.79q0-10.46,6.7-16.92t18.5-6.47q9.57,0,15.12,2.9a19.56,19.56,0,0,1,8.44,8.4q2.9,5.5,2.9,14.32ZM739,386.53q-.5-5-2.67-7.1a8.37,8.37,0,0,0-12.2,1.09,11.84,11.84,0,0,0-2,6Z" transform="translate(-421 -122)"/><path d="M626.31,493.68V480.87h29.39v26.25a60.16,60.16,0,0,1-14.93,7.83A50.64,50.64,0,0,1,625.39,517q-11,0-17.87-3.74a25.57,25.57,0,0,1-10.71-11.13,36.57,36.57,0,0,1-3.8-17,35.42,35.42,0,0,1,4.16-17.53,26.93,26.93,0,0,1,12.18-11.32q6.26-3,16.84-3,10.2,0,15.26,1.85a19.83,19.83,0,0,1,8.4,5.73,25.48,25.48,0,0,1,5,9.85l-18.35,3.28a9.94,9.94,0,0,0-3.84-5.33,12,12,0,0,0-6.91-1.85,12.45,12.45,0,0,0-10,4.35q-3.72,4.34-3.72,13.75,0,10,3.76,14.28t10.48,4.28a19.92,19.92,0,0,0,6.09-.92,32.84,32.84,0,0,0,6.63-3.15v-5.79Z" transform="translate(-421 -122)"/><path d="M681.45,485.82l-16.33-1.72a18.31,18.31,0,0,1,2.67-6.74,14.69,14.69,0,0,1,5-4.26,21,21,0,0,1,6.47-2,52.18,52.18,0,0,1,8.9-.71,70.71,70.71,0,0,1,12.35.86,15.87,15.87,0,0,1,7.77,3.59,12.6,12.6,0,0,1,3.44,5.35,19.35,19.35,0,0,1,1.26,6.61v19.69a23.71,23.71,0,0,0,.4,4.93,22.07,22.07,0,0,0,1.74,4.56h-16a16.21,16.21,0,0,1-1.26-2.62,19.31,19.31,0,0,1-.59-2.83,22.13,22.13,0,0,1-6.68,4.62A27.8,27.8,0,0,1,680,517q-8,0-12.11-3.7a11.74,11.74,0,0,1-4.14-9.11,11.93,11.93,0,0,1,3-8.36q3-3.28,11-4.87,9.62-1.93,12.47-2.71a58,58,0,0,0,6-2q0-3.15-1.3-4.41t-4.58-1.26q-4.2,0-6.3,1.34A7.36,7.36,0,0,0,681.45,485.82Zm14.82,9q-3.53,1.26-7.35,2.23-5.21,1.39-6.59,2.73a4.37,4.37,0,0,0,0,6.45,6,6,0,0,0,4.14,1.28,10.63,10.63,0,0,0,5.31-1.39,8.39,8.39,0,0,0,3.49-3.38,11.32,11.32,0,0,0,1-5.19Z" transform="translate(-421 -122)"/><path d="M724.16,532.94V471.38h16V478a21.26,21.26,0,0,1,6.09-5.63,17.44,17.44,0,0,1,8.27-2q8.94,0,13.84,6.84t4.89,16.92q0,11.13-5.33,17A17.45,17.45,0,0,1,754.43,517a18.7,18.7,0,0,1-7.2-1.34,17.14,17.14,0,0,1-5.82-4v21.29Zm17.13-39.14q0,5.29,2.23,7.85a7.13,7.13,0,0,0,5.63,2.56,6.22,6.22,0,0,0,5-2.46q2-2.46,2-8.33,0-5.42-2.1-8a6.42,6.42,0,0,0-5.12-2.54,6.88,6.88,0,0,0-5.46,2.56Q741.29,488.05,741.29,493.8Z" transform="translate(-421 -122)"/></svg>