<svg id="Layer_1" data-name="Layer 1" xmlns="http://www.w3.org/2000/svg" viewBox="0 0 519 83"><defs><style>.cls-1{fill:#fff;}.cls-2{fill:#d40000;}</style></defs><title>Untitled-5</title><rect class="cls-1" x="5" y="5" width="509" height="73"/><path class="cls-2" d="M820,234v63H321V234H820m10-10H311v83H830V224Z" transform="translate(-311 -224)"/><path d="M378.55,274q-.55,8.32-8.32,8.32h-8.36a8.37,8.37,0,0,1-8.32-8.32V253.17a8.1,8.1,0,0,1,2.41-5.84,7.92,7.92,0,0,1,5.91-2.48h8.36q7.85,0,8.32,8.32h-4.18q-.49-4.14-4.14-4.14H366a4,4,0,0,0-2.95,1.22,4,4,0,0,0-1.23,2.92V274a4.18,4.18,0,0,0,4.18,4.14h4.18q3.67,0,4.14-4.14Z" transform="translate(-311 -224)"/><path d="M395.19,253.17h8.36a8,8,0,0,1,5.87,2.47,8.07,8.07,0,0,1,2.45,5.89V274a8.4,8.4,0,0,1-8.32,8.32h-8.36a8.37,8.37,0,0,1-8.32-8.32v-12.5a8.39,8.39,0,0,1,8.32-8.36Zm0,8.36V274a4.18,4.18,0,0,0,8.36,0v-12.5a4.18,4.18,0,0,0-8.36,0Z" transform="translate(-311 -224)"/><path d="M445.19,282.35h-8.32V261.53a4.18,4.18,0,0,0-8.36,0v20.82h-8.32V253.17h8.32v4.18a5.16,5.16,0,0,1,1.3-3.14,3.91,3.91,0,0,1,2.88-1h4.18a7,7,0,0,1,6.25,2.95,6.09,6.09,0,0,1,2.54-2.22,8.67,8.67,0,0,1,3.71-.73h4.14a8.4,8.4,0,0,1,8.36,8.36v20.82h-8.36V261.53a4,4,0,0,0-1.23-2.94,4,4,0,0,0-2.91-1.24,4.2,4.2,0,0,0-4.18,4.18Z" transform="translate(-311 -224)"/><path d="M470.19,253.17h8.32v4.18a4.23,4.23,0,0,1,1.05-3.14,4.29,4.29,0,0,1,3.13-1h4.18a8,8,0,0,1,5.87,2.47,8.07,8.07,0,0,1,2.45,5.89V274a8.37,8.37,0,0,1-8.32,8.32h-8.36v8.32h-8.32Zm8.32,25h4.18a4,4,0,0,0,2.94-1.22,4,4,0,0,0,1.24-2.92v-12.5a4,4,0,0,0-1.24-2.94,4.05,4.05,0,0,0-2.94-1.22,4,4,0,0,0-2.95,1.21,4,4,0,0,0-1.23,2.95Z" transform="translate(-311 -224)"/><path d="M520.19,265.67v-4.14a4.22,4.22,0,0,0-4.18-4.18h-4.18q-3.69,0-4.14,4.18h-4.18q1-8.36,8.32-8.36h8.36a8,8,0,0,1,5.87,2.47,8.07,8.07,0,0,1,2.45,5.89v20.82h-8.32v-4.18q-.49,4.18-4.18,4.18h-4.18a8.37,8.37,0,0,1-8.32-8.32v0a8.39,8.39,0,0,1,8.32-8.32Zm0,4.18H516a4,4,0,0,0-2.95,1.22,4,4,0,0,0-1.23,2.92v0a4.18,4.18,0,0,0,8.36,0Z" transform="translate(-311 -224)"/><path d="M536.83,282.35V253.17h8.32v4.18a5.16,5.16,0,0,1,1.3-3.14,3.91,3.91,0,0,1,2.88-1h4.18a8,8,0,0,1,5.87,2.47,8.07,8.07,0,0,1,2.45,5.89v20.82h-8.32V261.53a4.18,4.18,0,0,0-8.36,0v20.82Z" transform="translate(-311 -224)"/><path d="M574.33,286.53q.29,4.14,4.14,4.14h4.18a4.05,4.05,0,0,0,2.94-1.22,4,4,0,0,0,1.24-2.92v-8.36q-.49,4.18-4.18,4.18h-4.18a8.37,8.37,0,0,1-8.32-8.32V253.17h8.32V274a4.18,4.18,0,0,0,8.36,0V253.17h8.32v33.36a8.42,8.42,0,0,1-8.32,8.32h-8.36q-7.36,0-8.32-8.32Z" transform="translate(-311 -224)"/><path d="M627.88,282.35v-37.5h1.89l23.11,20.82V244.85h4.18v37.5h-1.91l-23.09-20.82v20.82Z" transform="translate(-311 -224)"/><path d="M682.06,265.67v-4.14a4.22,4.22,0,0,0-4.18-4.18H673.7q-3.69,0-4.14,4.18h-4.18q1-8.36,8.32-8.36h8.36a8,8,0,0,1,5.87,2.47,8.07,8.07,0,0,1,2.45,5.89v20.82h-8.32v-4.18q-.49,4.18-4.18,4.18H673.7a8.37,8.37,0,0,1-8.32-8.32v0a8.39,8.39,0,0,1,8.32-8.32Zm0,4.18h-4.18a4,4,0,0,0-2.95,1.22A4,4,0,0,0,673.7,274v0a4.18,4.18,0,0,0,8.36,0Z" transform="translate(-311 -224)"/><path d="M723.7,282.35h-8.32V261.53a4.18,4.18,0,0,0-8.36,0v20.82H698.7V253.17H707v4.18a5.18,5.18,0,0,1,1.3-3.14,3.92,3.92,0,0,1,2.88-1h4.18a7,7,0,0,1,6.25,2.95,6.1,6.1,0,0,1,2.54-2.22,8.68,8.68,0,0,1,3.71-.73H732a8.4,8.4,0,0,1,8.36,8.36v20.82H732V261.53a4,4,0,0,0-1.23-2.94,4,4,0,0,0-2.91-1.24,4.2,4.2,0,0,0-4.18,4.18Z" transform="translate(-311 -224)"/><path d="M773.7,269.85H757V274a4.18,4.18,0,0,0,4.18,4.14h4.18q4.14,0,4.14-4.14h4.18q-1,8.32-8.32,8.32H757A8.37,8.37,0,0,1,748.7,274v-12.5a8.39,8.39,0,0,1,8.32-8.36h8.36a8,8,0,0,1,5.87,2.47,8.07,8.07,0,0,1,2.45,5.89ZM757,265.67h8.36v-4.14a4.18,4.18,0,0,0-8.36,0Z" transform="translate(-311 -224)"/></svg>