<svg xmlns="http://www.w3.org/2000/svg" viewBox="0 0 1018 309"><title>hello</title><g id="Layer_2" data-name="Layer 2"><g id="Layer_1-2" data-name="Layer 1"><rect x="22.5" y="22.5" width="973" height="264" fill="#fcfcfc" stroke="#930d0d" stroke-miterlimit="10" stroke-width="45"/><path d="M173.79,63.34V235.15H135.92V163H124.59v72.16H86.72V63.34h37.87v61.45h11.33V63.34Z"/><path d="M270.22,167.23h-47v30.46q0,9.55,1.17,12.31a4.43,4.43,0,0,0,4.5,2.76,5.39,5.39,0,0,0,5.53-3.66q1.39-3.66,1.39-14.17V176.36h34.45v10.4q0,13.05-1.39,20.06a44,44,0,0,1-6.52,15,33.13,33.13,0,0,1-13,11.94q-7.87,4-19.74,4a49.54,49.54,0,0,1-20.33-3.93A32.81,32.81,0,0,1,195.52,223a41.62,41.62,0,0,1-6.79-15.07q-1.89-8.22-1.89-23.93V142.93q0-18.47,4.23-29.13a32.17,32.17,0,0,1,13.85-16.34A42.73,42.73,0,0,1,227,91.78q15.29,0,25.23,6.84a36.21,36.21,0,0,1,13.94,18.15q4,11.3,4,31.78Zm-36.43-22.92V134q0-10.93-1-14.11a4,4,0,0,0-4-3.18q-3.78,0-4.68,2.71t-.9,14.59v10.29Z"/><path d="M319.51,63.34V235.15H282.09V63.34Z"/><path d="M370,63.34V235.15H332.55V63.34Z"/><path d="M465.23,143.78v34.49q0,19-1.62,27.86a42.27,42.27,0,0,1-6.93,16.56A31.93,31.93,0,0,1,443.06,234a47,47,0,0,1-19.11,3.66q-12.05,0-20.42-3.13a27.61,27.61,0,0,1-13-9.45,40.06,40.06,0,0,1-6.61-15.28q-2-9-2-26.9V146.86q0-19.63,3.6-30.67a34.28,34.28,0,0,1,13-17.72q9.35-6.69,23.93-6.69,12.23,0,21,4.3A34.4,34.4,0,0,1,457,107.27a42.32,42.32,0,0,1,6.52,14.22Q465.23,128.82,465.23,143.78Zm-36.34-10.61q0-10.82-1-13.64a4,4,0,0,0-4.23-2.81,4.2,4.2,0,0,0-4.32,2.81q-1.08,2.81-1.08,13.64v63.57q0,10,1.08,13a4.57,4.57,0,0,0,8.5.27q1-2.76,1-11.89Z"/><path d="M653.31,63.34,636.45,235.15H589.17q-6.49-39.6-11.46-90.1-2.27,21.65-10.56,90.1h-47l-17-171.82H540l4,59.95,3.87,58q2.09-45,10.47-117.9h39.32q.78,7.54,4.13,56.67L606,185.38q3.23-62.39,10.57-122Z"/><path d="M741.91,143.78v34.49q0,19-1.62,27.86a42.28,42.28,0,0,1-6.93,16.56A31.93,31.93,0,0,1,719.74,234a47,47,0,0,1-19.11,3.66q-12.05,0-20.42-3.13a27.62,27.62,0,0,1-13-9.45,40,40,0,0,1-6.61-15.28q-2-9-2-26.9V146.86q0-19.63,3.6-30.67a34.29,34.29,0,0,1,13-17.72q9.35-6.69,23.93-6.69,12.23,0,21,4.3a34.41,34.41,0,0,1,13.54,11.2,42.31,42.31,0,0,1,6.52,14.22Q741.91,128.82,741.91,143.78Zm-36.34-10.61q0-10.82-1-13.64a4,4,0,0,0-4.23-2.81,4.2,4.2,0,0,0-4.32,2.81Q695,122.34,695,133.17v63.57q0,10,1.08,13a4.57,4.57,0,0,0,8.5.27q1-2.76,1-11.89Z"/><path d="M790.22,94.33l-1.44,18.52Q796.69,93,811.71,91.78v49.56q-10,0-14.66,3.18a13.31,13.31,0,0,0-5.76,8.86q-1.08,5.68-1.08,26.16v55.61H753.88V94.33Z"/><path d="M857.23,63.34V235.15H819.81V63.34Z"/><path d="M952.93,63.34V235.15H916.59V224.94a38.62,38.62,0,0,1-11,9.57,24.53,24.53,0,0,1-12.05,3.19,22,22,0,0,1-14.66-5.25,23.35,23.35,0,0,1-8-12.15q-1.75-6.9-1.75-22.5v-65.9q0-16.24,1.75-23a22.68,22.68,0,0,1,8-11.94,23,23,0,0,1,15-5.15,26.8,26.8,0,0,1,12.37,2.87,31.5,31.5,0,0,1,10.21,8.62V63.34Zm-36.34,66.43q0-7.75-1.12-10.4T911,116.72q-3.24,0-4.36,2.39t-1.12,10.67v69q0,8.6,1.08,11.3a4.07,4.07,0,0,0,4.14,2.71,4.55,4.55,0,0,0,4.68-3q1.17-3,1.17-14.8Z"/></g></g></svg>