<svg id="Layer_1" data-name="Layer 1" xmlns="http://www.w3.org/2000/svg" viewBox="0 0 1366.01 768"><title>mountain</title><rect x="0.01" width="1366" height="768" fill="#bbdff9"/><path d="M1364.32,624.07c-.06-4.8-.29-9.6-.31-14.4a4.52,4.52,0,0,1,2-4v-90l-192.45-395L923.26,507.79,726.83,94.9,494.49,466.1,228.25,106.81,2,437.9q-1,2.21-2,4.49H0V566q.5,1.45,1,2.86l82.66.43,179.49-4L512.44,611l226.35,5,227.35-3,398.23,13.84A5.77,5.77,0,0,1,1364.32,624.07Z" transform="translate(0.01)" fill="#939393"/><ellipse cx="350.01" cy="580.5" rx="350" ry="187.5" fill="#6bbc37"/><ellipse cx="1042.01" cy="595" rx="324" ry="173" fill="#6bbc37"/><ellipse cx="757.51" cy="594.5" rx="456.5" ry="172.5" fill="#6bbc37"/><rect x="0.01" y="590" width="1366" height="178" fill="#74ce3a"/><ellipse cx="441.01" cy="613" rx="441" ry="155" fill="#74ce3a"/><ellipse cx="985.51" cy="601.5" rx="380.5" ry="165.5" fill="#74ce3a"/><path d="M120,264,227.87,107,338,252.1l-55.67-33.27-5.14,24-27.74-20-13.36,12h0c7.19-13-7.19-27-7.19-27L199.1,244.8l-24.66-21-3.08,27-22.61-7Z" transform="translate(0.01)" fill="#f4f4f4"/><polygon points="619.57 264 727.2 95 809.01 264 760.88 215.83 754.76 263.77 728.22 217.83 713.93 235.81 683.3 249.79 683.3 215.83 654.72 243.79 619.57 264" fill="#f4f4f4"/><polygon points="1093.01 244.61 1175.6 113 1247.01 264 1205.42 225.8 1182.8 255.32 1170.46 215.26 1139.62 246.89 1139.62 217.37 1093.01 244.61" fill="#f4f4f4"/><circle cx="120.51" cy="102.5" r="55.5" fill="#eae247"/><circle cx="474.51" cy="124.5" r="49.5" fill="#f2f2f2"/><circle cx="427.01" cy="160" r="47" fill="#f2f2f2"/><circle cx="508.51" cy="128.5" r="33.5" fill="#f2f2f2"/><circle cx="480.01" cy="186" r="44" fill="#f2f2f2"/><circle cx="856.01" cy="119" r="44" fill="#f2f2f2"/><circle cx="887.51" cy="77.5" r="38.5" fill="#f2f2f2"/><circle cx="905.01" cy="135" r="40" fill="#f2f2f2"/><circle cx="936.51" cy="97.5" r="36.5" fill="#f2f2f2"/><circle cx="91.01" cy="85" r="4" fill="#3a3a3a"/><circle cx="152.01" cy="85" r="4" fill="#3a3a3a"/><path d="M91,118s25,40,63-2" transform="translate(0.01)" fill="#3a3a3a"/></svg>